Coordinates																																									
version=1																																									
nRows= 22																																									
nColumns=42																																									
inDegrees=yes																																									
																																									
"Units are S.I. units (second, meters, Newtons, ...)"																																									
Angles are in degrees.																																									
																																									
endheader																																									
time	pelvis_tx	pelvis_ty	pelvis_tz	pelvis_tilt	pelvis_list	pelvis_rotation	hip_flexion_r	hip_adduction_r	hip_rotation_r	knee_angle_r	ankle_angle_r	subtalar_angle_r	mtp_angle_r	hip_flexion_l	hip_adduction_l	hip_rotation_l	knee_angle_l	ankle_angle_l	subtalar_angle_l	mtp_angle_l	lumbar_extension	lumbar_bending	lumbar_rotation	ground_force_vx	ground_force_vy	ground_force_vz	ground_force_px	ground_force_py	ground_force_pz	ground_force_vx	ground_force_vy	ground_force_vz	ground_force_px	ground_force_py	ground_force_pz	ground_torque_x	ground_torque_y	ground_torque_z	ground_torque_x	ground_torque_y	ground_torque_z
0.17	-0.57105	0.709812	0.281011	-14.794308	4.374583	-0.677808	-8.931852	-4.425832	-5.665355	-14.782595	-4.149371	0	0	35.033099	3.633416	-26.880524	-5.760323	-1.334598	0	0	25.832139	-3.371461	9.171832	0	0	0	0	0	0	-36.012196	218.250229	1.483948	-0.442042	-0.005429	0.219021	0	0	0	-0.001816	1.468753	-0.003048
0.18	-0.55598	0.711204	0.277759	-14.060952	5.443915	-0.051726	-8.943825	-5.847252	-6.246521	-17.871692	-6.298966	0	0	33.855024	5.328351	-24.311683	-7.208558	-1.436479	0	0	25.244579	-4.483054	8.87843	0	0	0	0	0	0	-43.092724	253.939499	4.905148	-0.439723	-0.005339	0.21847	0	0	0	-0.002072	1.675189	-0.003477
0.19	-0.541047	0.712653	0.274534	-13.380944	6.456716	0.552449	-8.753339	-7.19137	-6.694881	-21.221466	-8.515284	0	0	32.762679	6.946436	-21.818881	-8.74967	-1.371342	0	0	24.688335	-5.531007	8.606691	0	0	0	0	0	0	-48.241444	280.139954	8.840181	-0.436641	-0.005081	0.217559	0	0	0	-0.002289	1.851226	-0.003842
0.2	-0.526391	0.714138	0.271424	-12.798238	7.350692	1.103998	-8.234623	-8.375057	-6.936614	-24.839665	-10.717443	0	0	31.788701	8.398189	-19.51424	-10.362112	-1.061014	0	0	24.191657	-6.448163	8.365584	0	0	0	0	0	0	-51.026318	296.495636	12.902535	-0.433169	-0.00471	0.216359	0	0	0	-0.002474	2.00049	-0.004152
0.21	-0.512104	0.715662	0.268521	-12.320924	8.099784	1.55633	-7.323261	-9.361754	-6.908377	-28.711909	-12.78965	0	0	30.907931	9.631572	-17.511816	-11.970035	-0.475878	0	0	23.757882	-7.197662	8.179049	0	0	0	0	0	0	-51.527744	304.397949	16.822872	-0.429609	-0.004271	0.214947	0	0	0	-0.002617	2.116036	-0.004392
0.22	-0.498229	0.717231	0.265902	-11.93847	8.705056	1.86355	-6.003766	-10.148476	-6.575636	-32.798589	-14.598006	0	0	30.065758	10.627744	-15.907873	-13.467818	0.364513	0	0	23.380714	-7.769067	8.070862	0	0	0	0	0	0	-50.078419	306.018616	20.217686	-0.4262	-0.003801	0.213465	0	0	0	-0.002717	2.196772	-0.004559
0.23	-0.484767	0.71884	0.263606	-11.637714	9.179499	1.999039	-4.294615	-10.74672	-5.946445	-37.035103	-16.013442	0	0	29.207535	11.392211	-14.755905	-14.751935	1.404268	0	0	23.055724	-8.168701	8.047572	0	0	0	0	0	0	-47.117363	303.550598	22.69939	-0.423062	-0.00333	0.212081	0	0	0	-0.002777	2.245022	-0.00466
0.24	-0.471691	0.720464	0.261632	-11.412574	9.53545	1.964413	-2.234595	-11.16904	-5.07223	-41.336418	-16.9325	0	0	28.297897	11.945255	-14.051976	-15.745317	2.569225	0	0	22.785979	-8.409286	8.091048	0	0	0	0	0	0	-43.175938	298.841217	24.093958	-0.420143	-0.002886	0.210916	0	0	0	-0.002798	2.262112	-0.004695
0.25	-0.458955	0.722063	0.259933	-11.268323	9.778834	1.786885	0.130097	-11.423896	-4.035314	-45.6063	-17.292586	0	0	27.329914	12.313806	-13.737028	-16.410149	3.783428	0	0	22.583942	-8.503237	8.163091	0	0	0	0	0	0	-38.796741	293.137451	24.449142	-0.417245	-0.002498	0.210003	0	0	0	-0.002788	2.254642	-0.00468
0.26	-0.446505	0.723595	0.258445	-11.213979	9.911347	1.507017	2.747619	-11.518302	-2.928769	-49.746802	-17.079352	0	0	26.316418	12.526676	-13.71482	-16.74733	4.980864	0	0	22.463848	-8.462084	8.219806	0	0	0	0	0	0	-34.431713	287.06778	23.952913	-0.414101	-0.002184	0.209293	0	0	0	-0.002762	2.233129	-0.004635
0.27	-0.434272	0.725034	0.257105	-11.244803	9.93668	1.165364	5.549024	-11.464037	-1.840183	-53.664147	-16.326872	0	0	25.266471	12.613268	-13.876608	-16.786083	6.112056	0	0	22.425514	-8.300498	8.224311	0	0	0	0	0	0	-30.385767	280.745819	22.871334	-0.410478	-0.001951	0.208679	0	0	0	-0.002729	2.206882	-0.00458
0.28	-0.422188	0.726381	0.255863	-11.338947	9.862314	0.798066	8.449752	-11.278989	-0.844021	-57.273981	-15.111524	0	0	24.177102	12.601422	-14.119542	-16.573676	7.146325	0	0	22.450999	-8.037698	8.148952	0	0	0	0	0	0	-26.830469	273.936615	21.499422	-0.406204	-0.001797	0.208036	0	0	0	-0.002701	2.183557	-0.004532
0.29	-0.410189	0.727637	0.254674	-11.474028	9.695687	0.441896	11.371497	-10.983933	-0.002106	-60.508004	-13.539487	0	0	23.048274	12.514126	-14.353397	-16.168979	8.070647	0	0	22.519318	-7.694064	7.969158	0	0	0	0	0	0	-23.850512	266.382538	20.113464	-0.401168	-0.001706	0.207249	0	0	0	-0.002681	2.167674	-0.004499
0.3	-0.398227	0.728797	0.253494	-11.638059	9.442862	0.135859	14.257315	-10.602023	0.63456	-63.318777	-11.729818	0	0	21.891485	12.369043	-14.506362	-15.634207	8.886171	0	0	22.616715	-7.288901	7.66137	0	0	0	0	0	0	-21.460594	258.116425	18.908894	-0.39532	-0.001656	0.206247	0	0	0	-0.002672	2.160665	-0.004484
0.31	-0.38627	0.729843	0.252289	-11.824603	9.112424	-0.088984	17.07006	-10.160289	1.033506	-65.680704	-9.79697	0	0	20.720998	12.179966	-14.537815	-15.023599	9.603779	0	0	22.733851	-6.841203	7.213948	0	0	0	0	0	0	-19.597013	249.57193	17.962185	-0.388713	-0.001626	0.205035	0	0	0	-0.002673	2.161189	-0.004486
0.32	-0.374303	0.730761	0.251045	-12.025633	8.718641	-0.217593	19.785357	-9.689388	1.187879	-67.587372	-7.83707	0	0	19.543912	11.958711	-14.443656	-14.375709	10.239284	0	0	22.860674	-6.370551	6.636266	0	0	0	0	0	0	-18.124346	241.454987	17.243837	-0.381534	-0.0016	0.203681	0	0	0	-0.002679	2.165844	-0.004495
0.33	-0.362318	0.731537	0.249762	-12.230279	8.279488	-0.247053	22.385907	-9.220571	1.11046	-69.045583	-5.921668	0	0	18.3589	11.716178	-14.24579	-13.713702	10.809548	0	0	22.985105	-5.895967	5.95338	0	0	0	0	0	0	-16.875982	234.495865	16.66572	-0.374094	-0.001569	0.202294	0	0	0	-0.002684	2.169966	-0.004504
0.34	-0.350321	0.73216	0.248446	-12.427533	7.812628	-0.180784	24.859665	-8.780989	0.824708	-70.068998	-4.099144	0	0	17.161166	11.461501	-13.978413	-13.050765	11.330665	0	0	23.094956	-5.433515	5.196425	0	0	0	0	0	0	-15.694706	229.23587	16.13525	-0.366783	-0.001529	0.200984	0	0	0	-0.002681	2.167812	-0.004499
0.35	-0.338327	0.732619	0.247105	-12.609498	7.333755	-0.026723	27.200597	-8.390728	0.361272	-70.673272	-2.399928	0	0	15.948067	11.201923	-13.678145	-12.395079	11.816618	0	0	23.18081	-4.995314	4.39734	0	0	0	0	0	0	-14.45417	225.916138	15.586516	-0.359981	-0.00148	0.199845	0	0	0	-0.002665	2.154786	-0.004472
0.36	-0.326353	0.732903	0.245747	-12.773173	6.856398	0.204362	29.407943	-8.062455	-0.244781	-70.872092	-0.840605	0	0	14.721716	10.944098	-13.37522	-11.752139	12.277356	0	0	23.237828	-4.589731	3.587291	0	0	0	0	0	0	-13.069371	224.491959	14.995594	-0.35398	-0.001423	0.198938	0	0	0	-0.002635	2.130222	-0.004421
0.37	-0.314421	0.733002	0.244386	-12.921878	6.392811	0.498979	31.486083	-7.801878	-0.956125	-70.675137	0.575898	0	0	13.490693	10.695281	-13.091024	-11.126075	12.717931	0	0	23.267401	-4.222548	2.797713	0	0	0	0	0	0	-11.495008	224.727142	14.379812	-0.34894	-0.001362	0.198291	0	0	0	-0.002595	2.097981	-0.004354
0.38	-0.302547	0.732899	0.243045	-13.066358	5.956017	0.836333	33.446521	-7.60712	-1.730507	-70.088068	1.858216	0	0	12.271893	10.463377	-12.846253	-10.521129	13.139806	0	0	23.278763	-3.898751	2.061817	0	0	0	0	0	0	-9.712955	226.299164	13.777355	-0.344889	-0.001295	0.197905	0	0	0	-0.002554	2.064815	-0.004286
